<svg width="22" height="18" viewBox="0 0 22 18" fill="none" xmlns="http://www.w3.org/2000/svg">
<g clip-path="url(#clip0_101_906)">
<path d="M21.1641 4.16953L18.8825 0.527344C18.6786 0.200391 18.3164 0 17.9297 0H3.7266C3.33988 0 2.97777 0.200391 2.77386 0.527344L0.492223 4.16953C-0.685512 6.05039 0.358629 8.66602 2.55941 8.96484C2.71761 8.98594 2.87933 8.99648 3.04105 8.99648C4.08168 8.99648 5.00277 8.53945 5.63558 7.83281C6.26839 8.53945 7.193 8.99648 8.23011 8.99648C9.27074 8.99648 10.1918 8.53945 10.8246 7.83281C11.4575 8.53945 12.3821 8.99648 13.4192 8.99648C14.4598 8.99648 15.3809 8.53945 16.0137 7.83281C16.65 8.53945 17.5711 8.99648 18.6082 8.99648C18.7735 8.99648 18.9317 8.98594 19.0899 8.96484C21.2977 8.66953 22.3453 6.05391 21.1641 4.16953ZM18.6153 10.125C18.2637 10.125 17.9157 10.0723 17.5782 9.99141V13.5H4.07816V9.99141C3.74066 10.0688 3.39261 10.125 3.04105 10.125C2.83011 10.125 2.61566 10.1109 2.40824 10.0828C2.21136 10.0547 2.018 10.009 1.83168 9.95625V16.875C1.83168 17.4973 2.33441 18 2.95668 18H18.7067C19.3289 18 19.8317 17.4973 19.8317 16.875V9.95625C19.6418 10.0125 19.452 10.0582 19.2551 10.0828C19.0407 10.1109 18.8297 10.125 18.6153 10.125Z" fill="#E11383"/>
</g>
<defs>
<clipPath id="clip0_101_906">
<rect width="21.6562" height="18" fill="white"/>
</clipPath>
</defs>
</svg>
