<svg width="21" height="18" viewBox="0 0 21 18" fill="none" xmlns="http://www.w3.org/2000/svg">
<g clip-path="url(#clip0_101_880)">
<path d="M0 4.13648V16.3118C0 16.7098 0.401836 16.9819 0.771328 16.8342L5.625 14.625V1.125L0.707344 3.09199C0.498578 3.17549 0.319616 3.31962 0.193539 3.50579C0.0674608 3.69197 4.99995e-05 3.91164 0 4.13648H0ZM6.75 14.625L13.5 16.875V3.375L6.75 1.125V14.625ZM19.4787 1.16578L14.625 3.375V16.875L19.5427 14.908C19.7514 14.8245 19.9304 14.6804 20.0565 14.4942C20.1826 14.3081 20.25 14.0884 20.25 13.8635V1.6882C20.25 1.29023 19.8482 1.01812 19.4787 1.16578Z" fill="#E11383"/>
</g>
<defs>
<clipPath id="clip0_101_880">
<rect width="20.25" height="18" fill="white"/>
</clipPath>
</defs>
</svg>
